<mxfile host="Electron" agent="Mozilla/5.0 (X11; Linux x86_64) AppleWebKit/537.36 (KHTML, like Gecko) draw.io/26.0.9 Chrome/128.0.6613.186 Electron/32.2.5 Safari/537.36" version="26.0.9">
  <diagram name="Page-1" id="1lKQMADQvAFsS9lrpwBv">
    <mxGraphModel dx="1738" dy="658" grid="1" gridSize="10" guides="1" tooltips="1" connect="1" arrows="1" fold="1" page="1" pageScale="1" pageWidth="850" pageHeight="1100" math="0" shadow="0">
      <root>
        <mxCell id="0" />
        <mxCell id="1" parent="0" />
        <mxCell id="FGWI98jdM7aSyxM8Nc5y-1" value="Customer" style="shape=umlActor;verticalLabelPosition=bottom;verticalAlign=top;html=1;outlineConnect=0;" vertex="1" parent="1">
          <mxGeometry x="95" y="110" width="50" height="90" as="geometry" />
        </mxCell>
        <mxCell id="FGWI98jdM7aSyxM8Nc5y-2" value="System" style="shape=umlActor;verticalLabelPosition=bottom;verticalAlign=top;html=1;outlineConnect=0;" vertex="1" parent="1">
          <mxGeometry x="695" y="110" width="50" height="90" as="geometry" />
        </mxCell>
        <mxCell id="FGWI98jdM7aSyxM8Nc5y-3" value="Employee" style="shape=umlActor;verticalLabelPosition=bottom;verticalAlign=top;html=1;outlineConnect=0;" vertex="1" parent="1">
          <mxGeometry x="400" y="110" width="50" height="90" as="geometry" />
        </mxCell>
        <mxCell id="FGWI98jdM7aSyxM8Nc5y-4" value="" style="endArrow=none;dashed=1;html=1;rounded=0;" edge="1" parent="1" source="FGWI98jdM7aSyxM8Nc5y-8">
          <mxGeometry width="50" height="50" relative="1" as="geometry">
            <mxPoint x="120" y="734" as="sourcePoint" />
            <mxPoint x="120" y="220" as="targetPoint" />
          </mxGeometry>
        </mxCell>
        <mxCell id="FGWI98jdM7aSyxM8Nc5y-5" value="" style="endArrow=none;dashed=1;html=1;rounded=0;" edge="1" parent="1">
          <mxGeometry width="50" height="50" relative="1" as="geometry">
            <mxPoint x="424" y="560" as="sourcePoint" />
            <mxPoint x="424" y="220" as="targetPoint" />
          </mxGeometry>
        </mxCell>
        <mxCell id="FGWI98jdM7aSyxM8Nc5y-6" value="" style="endArrow=none;dashed=1;html=1;rounded=0;" edge="1" parent="1">
          <mxGeometry width="50" height="50" relative="1" as="geometry">
            <mxPoint x="720" y="560" as="sourcePoint" />
            <mxPoint x="719.5" y="220" as="targetPoint" />
          </mxGeometry>
        </mxCell>
        <mxCell id="FGWI98jdM7aSyxM8Nc5y-9" value="" style="endArrow=none;dashed=1;html=1;rounded=0;" edge="1" parent="1" target="FGWI98jdM7aSyxM8Nc5y-8">
          <mxGeometry width="50" height="50" relative="1" as="geometry">
            <mxPoint x="120" y="560" as="sourcePoint" />
            <mxPoint x="120" y="220" as="targetPoint" />
          </mxGeometry>
        </mxCell>
        <mxCell id="FGWI98jdM7aSyxM8Nc5y-8" value="" style="rounded=0;whiteSpace=wrap;html=1;" vertex="1" parent="1">
          <mxGeometry x="110" y="240" width="20" height="290" as="geometry" />
        </mxCell>
        <mxCell id="FGWI98jdM7aSyxM8Nc5y-10" value="" style="endArrow=classic;html=1;rounded=0;exitX=1;exitY=0.068;exitDx=0;exitDy=0;exitPerimeter=0;entryX=0;entryY=0;entryDx=0;entryDy=0;" edge="1" parent="1" source="FGWI98jdM7aSyxM8Nc5y-8" target="FGWI98jdM7aSyxM8Nc5y-11">
          <mxGeometry width="50" height="50" relative="1" as="geometry">
            <mxPoint x="260" y="250" as="sourcePoint" />
            <mxPoint x="380" y="260" as="targetPoint" />
          </mxGeometry>
        </mxCell>
        <mxCell id="FGWI98jdM7aSyxM8Nc5y-11" value="" style="rounded=0;whiteSpace=wrap;html=1;" vertex="1" parent="1">
          <mxGeometry x="415" y="260" width="20" height="250" as="geometry" />
        </mxCell>
        <mxCell id="FGWI98jdM7aSyxM8Nc5y-13" value="" style="rounded=0;whiteSpace=wrap;html=1;" vertex="1" parent="1">
          <mxGeometry x="710" y="280" width="20" height="90" as="geometry" />
        </mxCell>
        <mxCell id="FGWI98jdM7aSyxM8Nc5y-14" value="" style="endArrow=classic;html=1;rounded=0;entryX=0;entryY=0;entryDx=0;entryDy=0;exitX=0.997;exitY=0.08;exitDx=0;exitDy=0;exitPerimeter=0;" edge="1" parent="1" source="FGWI98jdM7aSyxM8Nc5y-11" target="FGWI98jdM7aSyxM8Nc5y-13">
          <mxGeometry width="50" height="50" relative="1" as="geometry">
            <mxPoint x="470" y="290" as="sourcePoint" />
            <mxPoint x="690" y="280" as="targetPoint" />
          </mxGeometry>
        </mxCell>
        <mxCell id="FGWI98jdM7aSyxM8Nc5y-15" value="&lt;font style=&quot;font-size: 8px;&quot;&gt;Verify reserve on the system&lt;/font&gt;" style="text;html=1;align=center;verticalAlign=middle;whiteSpace=wrap;rounded=0;" vertex="1" parent="1">
          <mxGeometry x="478" y="257" width="180" height="30" as="geometry" />
        </mxCell>
        <mxCell id="FGWI98jdM7aSyxM8Nc5y-16" value="" style="endArrow=classic;html=1;rounded=0;dashed=1;exitX=0;exitY=1;exitDx=0;exitDy=0;entryX=1.004;entryY=0.439;entryDx=0;entryDy=0;entryPerimeter=0;" edge="1" parent="1" source="FGWI98jdM7aSyxM8Nc5y-13" target="FGWI98jdM7aSyxM8Nc5y-11">
          <mxGeometry width="50" height="50" relative="1" as="geometry">
            <mxPoint x="550" y="360" as="sourcePoint" />
            <mxPoint x="460" y="360" as="targetPoint" />
          </mxGeometry>
        </mxCell>
        <mxCell id="FGWI98jdM7aSyxM8Nc5y-17" value="&lt;font style=&quot;font-size: 8px;&quot;&gt;result&lt;/font&gt;" style="text;html=1;align=center;verticalAlign=middle;whiteSpace=wrap;rounded=0;" vertex="1" parent="1">
          <mxGeometry x="478" y="346" width="180" height="30" as="geometry" />
        </mxCell>
        <mxCell id="FGWI98jdM7aSyxM8Nc5y-18" value="opt" style="shape=umlFrame;whiteSpace=wrap;html=1;pointerEvents=0;" vertex="1" parent="1">
          <mxGeometry x="30" y="380" width="470" height="90" as="geometry" />
        </mxCell>
        <mxCell id="FGWI98jdM7aSyxM8Nc5y-21" value="&lt;font style=&quot;font-size: 8px;&quot;&gt;is reserved&lt;/font&gt;" style="text;html=1;align=center;verticalAlign=middle;whiteSpace=wrap;rounded=0;" vertex="1" parent="1">
          <mxGeometry x="-30" y="400" width="180" height="30" as="geometry" />
        </mxCell>
        <mxCell id="FGWI98jdM7aSyxM8Nc5y-22" value="" style="endArrow=classic;html=1;rounded=0;dashed=1;exitX=0;exitY=1;exitDx=0;exitDy=0;entryX=1.107;entryY=0.574;entryDx=0;entryDy=0;entryPerimeter=0;" edge="1" parent="1">
          <mxGeometry width="50" height="50" relative="1" as="geometry">
            <mxPoint x="415" y="430" as="sourcePoint" />
            <mxPoint x="132.1400000000001" y="429.78" as="targetPoint" />
          </mxGeometry>
        </mxCell>
        <mxCell id="FGWI98jdM7aSyxM8Nc5y-23" value="&lt;font style=&quot;font-size: 8px;&quot;&gt;Give tickets&lt;/font&gt;" style="text;html=1;align=center;verticalAlign=middle;whiteSpace=wrap;rounded=0;" vertex="1" parent="1">
          <mxGeometry x="183" y="407" width="180" height="30" as="geometry" />
        </mxCell>
      </root>
    </mxGraphModel>
  </diagram>
</mxfile>
